<?xml version="1.0" encoding="UTF-8" standalone="no"?>
<svg
   width="500"
   height="500"
   fill="none"
   viewBox="0 0 35.714286 35.714286"
   version="1.1"
   id="svg1"
   sodipodi:docname="mapillary.svg"
   xmlns:inkscape="http://www.inkscape.org/namespaces/inkscape"
   xmlns:sodipodi="http://sodipodi.sourceforge.net/DTD/sodipodi-0.dtd"
   xmlns="http://www.w3.org/2000/svg"
   xmlns:svg="http://www.w3.org/2000/svg">
  <defs
     id="defs1" />
  <sodipodi:namedview
     id="namedview1"
     pagecolor="#ffffff"
     bordercolor="#000000"
     borderopacity="0.25"
     inkscape:showpageshadow="2"
     inkscape:pageopacity="0.0"
     inkscape:pagecheckerboard="0"
     inkscape:deskcolor="#d1d1d1"
     showgrid="false"
     inkscape:export-bgcolor="#ffffffff">
    <inkscape:page
       x="0"
       y="0"
       width="35.714287"
       height="35.714287"
       id="page2"
       margin="0"
       bleed="0" />
  </sodipodi:namedview>
  <path
     fill="#05cb63"
     fill-rule="evenodd"
     d="m 17.36284,26.354504 c 0.624,0.327 15.734,8.542 16.21,8.807 0.954,0.528 1.963,-0.494 1.444,-1.45 -0.261,-0.48 -8.446,-15.977 -8.722,-16.451 -0.276,-0.474999 -0.956,-0.713999 -1.467,-0.395999 -0.5,0.311999 -1.077,0.662999 -1.4,0.831999 -0.651,0.34 -0.731,0.851 -0.439,1.42 0.643,1.248 2.664,5.038 2.896,5.435 0.484,0.831 -0.596,1.78 -1.329,1.366 -0.31,-0.176 -5.107,-2.768 -5.446,-2.971 -0.339,-0.203 -0.94,-0.201 -1.351,0.484 a 53.63,53.63 0 0 0 -0.837,1.425 c -0.334,0.61 -0.182,1.172 0.441,1.499 z m -15.951,-8.666 c -0.80499998,-0.448 -0.65799998,-1.612999 0.357,-1.909999 0.86,-0.252 7.844,-2.657 9.957,-3.386 0.382,-0.131 0.679,-0.434 0.807,-0.82 l 3.394,-10.2290004 c 0.317,-0.95699997 1.466,-0.95999997 1.935,-0.034 0.166,0.33 6.49,12.1060004 6.71,12.6060004 0.22,0.5 0.078,1.053 -0.42,1.372 -0.5,0.319 -1.312,0.796 -1.596,0.977 -0.513,0.328 -1.004,0.1 -1.238,-0.408 -0.234,-0.507 -2.038,-3.78 -2.774,-5.169 -0.368,-0.6940004 -1.476,-0.9600004 -1.848,0.162 l -1.224,3.689 a 1.343,1.343 0 0 1 -0.812,0.827 l -3.683,1.254 c -0.727,0.247 -1.08,1.391999 -0.099,1.873999 0.205,0.1 4.626,2.538 5.082,2.76 0.457,0.224 0.71,0.867 0.443,1.323 -0.364,0.622 -0.83,1.411 -1,1.668 -0.293,0.444 -0.87,0.591 -1.353,0.33 -0.484,-0.265 -12.351,-6.727 -12.638,-6.887 z"
     clip-rule="evenodd"
     id="path1" />
</svg>
